<svg width="109" height="34" viewBox="0 0 109 34" fill="none" xmlns="http://www.w3.org/2000/svg">
<path d="M16.875 2L2 17L16.875 32M2 17L36 17L2 17Z" stroke="#1D1213" stroke-width="3" stroke-linecap="round" stroke-linejoin="round"/>
<path d="M50.9818 25V8.63418H56.7034C57.8435 8.63418 58.7838 8.8313 59.5243 9.22552C60.2648 9.61443 60.8162 10.1392 61.1785 10.7998C61.5407 11.455 61.7219 12.1822 61.7219 12.9814C61.7219 13.6846 61.5967 14.2653 61.3463 14.7234C61.1012 15.1816 60.7763 15.5438 60.3714 15.8102C59.9718 16.0766 59.5376 16.2737 59.0688 16.4016V16.5614C59.5696 16.5933 60.073 16.7691 60.5791 17.0888C61.0852 17.4084 61.5088 17.8666 61.8497 18.4633C62.1907 19.0599 62.3612 19.7898 62.3612 20.6528C62.3612 21.4733 62.1747 22.2111 61.8018 22.8664C61.4289 23.5216 60.8402 24.0411 60.0357 24.4246C59.2313 24.8082 58.1845 25 56.8952 25H50.9818ZM52.9636 23.242H56.8952C58.1898 23.242 59.1088 22.9916 59.6522 22.4908C60.2009 21.9847 60.4753 21.372 60.4753 20.6528C60.4753 20.0988 60.3341 19.5873 60.0517 19.1185C59.7694 18.6444 59.3671 18.2661 58.8451 17.9838C58.323 17.6961 57.705 17.5523 56.9911 17.5523H52.9636V23.242ZM52.9636 15.8262H56.6395C57.2362 15.8262 57.7743 15.709 58.2537 15.4746C58.7385 15.2402 59.1221 14.9099 59.4044 14.4837C59.6921 14.0575 59.836 13.5567 59.836 12.9814C59.836 12.2622 59.5856 11.6522 59.0848 11.1514C58.584 10.6453 57.7902 10.3922 56.7034 10.3922H52.9636V15.8262ZM66.0638 25H63.9861L69.9954 8.63418H72.0411L78.0504 25H75.9728L71.0822 11.2233H70.9543L66.0638 25ZM66.8309 18.6071H75.2056V20.3651H66.8309V18.6071ZM92.7748 13.7485H90.793C90.6758 13.1785 90.4707 12.6777 90.1777 12.2462C89.89 11.8146 89.5384 11.4524 89.1229 11.1594C88.7127 10.861 88.2572 10.6373 87.7564 10.4881C87.2556 10.339 86.7335 10.2644 86.1901 10.2644C85.1992 10.2644 84.3016 10.5148 83.4971 11.0155C82.698 11.5163 82.0614 12.2542 81.5872 13.2291C81.1184 14.204 80.884 15.4 80.884 16.8171C80.884 18.2342 81.1184 19.4302 81.5872 20.4051C82.0614 21.38 82.698 22.1179 83.4971 22.6186C84.3016 23.1194 85.1992 23.3698 86.1901 23.3698C86.7335 23.3698 87.2556 23.2952 87.7564 23.1461C88.2572 22.9969 88.7127 22.7758 89.1229 22.4828C89.5384 22.1845 89.89 21.8195 90.1777 21.388C90.4707 20.9512 90.6758 20.4504 90.793 19.8857H92.7748C92.6256 20.7221 92.3539 21.4706 91.9597 22.1312C91.5655 22.7918 91.0754 23.3538 90.4893 23.8173C89.9033 24.2755 89.2454 24.6244 88.5155 24.8642C87.791 25.1039 87.0159 25.2238 86.1901 25.2238C84.7943 25.2238 83.5531 24.8828 82.4663 24.2009C81.3795 23.519 80.5244 22.5494 79.9011 21.2921C79.2778 20.0348 78.9661 18.5432 78.9661 16.8171C78.9661 15.091 79.2778 13.5993 79.9011 12.3421C80.5244 11.0848 81.3795 10.1152 82.4663 9.43329C83.5531 8.75138 84.7943 8.41043 86.1901 8.41043C87.0159 8.41043 87.791 8.5303 88.5155 8.77003C89.2454 9.00976 89.9033 9.36137 90.4893 9.82486C91.0754 10.283 91.5655 10.8424 91.9597 11.503C92.3539 12.1583 92.6256 12.9068 92.7748 13.7485ZM95.7522 25V8.63418H97.734V16.7532H97.9258L105.278 8.63418H107.867L100.994 16.018L107.867 25H105.469L99.7797 17.3925L97.734 19.6939V25H95.7522Z" fill="black"/>
</svg>
