<svg width="80" height="80" viewBox="0 0 80 80" fill="none" xmlns="http://www.w3.org/2000/svg">
<path d="M40 30.475C38.1163 30.4757 36.2751 31.0349 34.7092 32.082C33.1433 33.129 31.923 34.6169 31.2026 36.3574C30.4822 38.0979 30.2941 40.013 30.662 41.8604C31.03 43.7079 31.9374 45.4047 33.2696 46.7365C34.6019 48.0682 36.2991 48.975 38.1466 49.3422C39.9942 49.7095 41.9092 49.5206 43.6495 48.7996C45.3897 48.0786 46.8771 46.8577 47.9236 45.2914C48.97 43.7251 49.5286 41.8837 49.5286 40C49.5267 37.4738 48.5221 35.0516 46.7354 33.2656C44.9488 31.4797 42.5262 30.4759 40 30.475ZM62.2696 23.1536C61.7847 21.9247 61.0525 20.8086 60.1184 19.8745C59.1842 18.9403 58.0681 18.2081 56.8393 17.7232C53.0893 16.2429 44.1607 16.575 40 16.575C35.8393 16.575 26.9196 16.2304 23.1589 17.7232C21.9301 18.2081 20.814 18.9403 19.8798 19.8745C18.9457 20.8086 18.2135 21.9247 17.7286 23.1536C16.25 26.9036 16.5804 35.8411 16.5804 39.9982C16.5804 44.1554 16.25 53.0821 17.7357 56.8446C18.2206 58.0735 18.9528 59.1896 19.887 60.1237C20.8211 61.0579 21.9372 61.7901 23.1661 62.275C26.9161 63.7554 35.8446 63.4232 40.0071 63.4232C44.1696 63.4232 53.0857 63.7679 56.8464 62.275C58.0753 61.7901 59.1914 61.0579 60.1255 60.1237C61.0597 59.1896 61.7919 58.0735 62.2768 56.8446C63.7679 53.0946 63.425 44.1571 63.425 40C63.425 35.8429 63.7679 26.9179 62.2768 23.1554L62.2696 23.1536ZM40 54.6429C37.1039 54.6429 34.2729 53.7841 31.8649 52.1751C29.4569 50.5661 27.58 48.2792 26.4718 45.6036C25.3635 42.9279 25.0735 39.9838 25.6385 37.1433C26.2035 34.3029 27.5981 31.6938 29.6459 29.6459C31.6938 27.5981 34.3029 26.2035 37.1433 25.6385C39.9838 25.0735 42.9279 25.3635 45.6036 26.4718C48.2792 27.58 50.5661 29.4569 52.1751 31.8649C53.7841 34.2729 54.6429 37.1039 54.6429 40C54.6452 41.9236 54.2681 43.8287 53.533 45.6064C52.798 47.384 51.7195 48.9991 50.3593 50.3593C48.9991 51.7195 47.384 52.798 45.6064 53.533C43.8287 54.2681 41.9236 54.6452 40 54.6429ZM55.2464 28.1607C54.5704 28.1611 53.9094 27.9609 53.3471 27.5856C52.7848 27.2102 52.3464 26.6766 52.0875 26.0521C51.8285 25.4276 51.7606 24.7403 51.8922 24.0772C52.0239 23.414 52.3493 22.8049 52.8272 22.3267C53.3051 21.8485 53.9142 21.5228 54.5772 21.3908C55.2402 21.2588 55.9276 21.3264 56.5522 21.585C57.1768 21.8436 57.7107 22.2817 58.0864 22.8438C58.462 23.4059 58.6625 24.0668 58.6625 24.7429C58.6644 25.1918 58.5776 25.6367 58.4072 26.0521C58.2367 26.4674 57.9859 26.845 57.6692 27.1632C57.3525 27.4814 56.9761 27.734 56.5616 27.9064C56.147 28.0788 55.7025 28.1676 55.2536 28.1679L55.2464 28.1607ZM71.4286 0H8.57143C6.29814 0 4.11797 0.903059 2.51051 2.51051C0.903059 4.11797 0 6.29814 0 8.57143L0 71.4286C0 73.7019 0.903059 75.882 2.51051 77.4895C4.11797 79.0969 6.29814 80 8.57143 80H71.4286C73.7019 80 75.882 79.0969 77.4895 77.4895C79.0969 75.882 80 73.7019 80 71.4286V8.57143C80 6.29814 79.0969 4.11797 77.4895 2.51051C75.882 0.903059 73.7019 0 71.4286 0ZM68.3714 51.7857C68.1411 56.3625 67.0964 60.4179 63.7554 63.75C60.4143 67.0821 56.3625 68.1482 51.7911 68.3661C47.075 68.6321 32.9357 68.6321 28.2196 68.3661C23.6429 68.1357 19.6018 67.0893 16.2554 63.75C12.9089 60.4107 11.8571 56.3536 11.6393 51.7857C11.3732 47.0679 11.3732 32.9268 11.6393 28.2143C11.8696 23.6375 12.9018 19.5821 16.2554 16.25C19.6089 12.9179 23.6607 11.8643 28.2196 11.6464C32.9357 11.3804 47.075 11.3804 51.7911 11.6464C56.3679 11.8768 60.4214 12.9232 63.7554 16.2625C67.0893 19.6018 68.1536 23.6589 68.3714 28.2357C68.6375 32.9357 68.6375 47.0643 68.3714 51.7857Z" fill="#1D1213"/>
</svg>
