<svg width="40" height="40" viewBox="0 0 40 40" fill="none" xmlns="http://www.w3.org/2000/svg">
<path d="M7.18481 0.543945C3.20474 0.543945 0 3.74868 0 7.72874V32.7076C0 36.6877 3.20474 39.8924 7.18481 39.8924H20.7232V24.5096H16.6555V18.9713H20.7232V14.2397C20.7232 10.5222 23.1265 7.109 28.663 7.109C30.9046 7.109 32.5622 7.32419 32.5622 7.32419L32.4318 12.4961C32.4318 12.4961 30.7413 12.4801 28.8966 12.4801C26.9001 12.4801 26.5799 13.4 26.5799 14.9271V18.9714H32.5904L32.3285 24.5097H26.5799V39.8925H32.1637C36.1438 39.8925 39.3485 36.6877 39.3485 32.7077V7.72878C39.3485 3.74872 36.1438 0.543985 32.1637 0.543985H7.18477L7.18481 0.543945Z" fill="#F5E9DA"/>
</svg>
