<svg width="41" height="40" viewBox="0 0 41 40" fill="none" xmlns="http://www.w3.org/2000/svg">
<path d="M20.5014 15.5333C19.5749 15.5336 18.6693 15.8087 17.8991 16.3237C17.1289 16.8387 16.5287 17.5705 16.1744 18.4266C15.82 19.2827 15.7275 20.2246 15.9085 21.1333C16.0894 22.0419 16.5358 22.8766 17.191 23.5316C17.8463 24.1866 18.6811 24.6326 19.5898 24.8133C20.4986 24.9939 21.4405 24.901 22.2964 24.5464C23.1524 24.1917 23.884 23.5912 24.3987 22.8208C24.9134 22.0504 25.1881 21.1447 25.1881 20.2182C25.1872 18.9757 24.693 17.7843 23.8143 16.9059C22.9355 16.0274 21.744 15.5337 20.5014 15.5333ZM31.4549 11.9322C31.2164 11.3278 30.8562 10.7788 30.3968 10.3193C29.9373 9.85988 29.3883 9.49973 28.7839 9.26123C26.9395 8.5331 22.5479 8.69647 20.5014 8.69647C18.4549 8.69647 14.0678 8.52695 12.218 9.26123C11.6136 9.49973 11.0646 9.85988 10.6052 10.3193C10.1457 10.7788 9.78556 11.3278 9.54706 11.9322C8.81982 13.7766 8.98231 18.1726 8.98231 20.2173C8.98231 22.2621 8.81982 26.6527 9.55058 28.5034C9.78908 29.1078 10.1492 29.6567 10.6087 30.1162C11.0681 30.5757 11.6171 30.9358 12.2215 31.1743C14.066 31.9024 18.4576 31.7391 20.5049 31.7391C22.5523 31.7391 26.9377 31.9086 28.7874 31.1743C29.3919 30.9358 29.9408 30.5757 30.4003 30.1162C30.8597 29.6567 31.2199 29.1078 31.4584 28.5034C32.1918 26.6589 32.0232 22.2629 32.0232 20.2182C32.0232 18.1735 32.1918 13.7837 31.4584 11.9331L31.4549 11.9322ZM20.5014 27.4204C19.077 27.4204 17.6845 26.998 16.5001 26.2066C15.3157 25.4152 14.3926 24.2904 13.8475 22.9744C13.3023 21.6583 13.1597 20.2102 13.4376 18.8131C13.7155 17.416 14.4015 16.1327 15.4087 15.1255C16.4159 14.1183 17.6992 13.4323 19.0963 13.1544C20.4934 12.8765 21.9415 13.0191 23.2576 13.5643C24.5736 14.1094 25.6984 15.0325 26.4898 16.2169C27.2812 17.4013 27.7036 18.7938 27.7036 20.2182C27.7048 21.1643 27.5193 22.1014 27.1577 22.9757C26.7962 23.8501 26.2657 24.6445 25.5967 25.3135C24.9277 25.9825 24.1333 26.513 23.2589 26.8745C22.3846 27.2361 21.4475 27.4216 20.5014 27.4204ZM28.0005 14.395C27.6679 14.3952 27.3428 14.2967 27.0663 14.1121C26.7897 13.9275 26.5741 13.665 26.4467 13.3578C26.3193 13.0507 26.2859 12.7126 26.3507 12.3865C26.4155 12.0603 26.5755 11.7607 26.8106 11.5255C27.0456 11.2903 27.3452 11.1301 27.6713 11.0652C27.9974 11.0002 28.3355 11.0335 28.6427 11.1607C28.9499 11.2879 29.2126 11.5034 29.3973 11.7798C29.5821 12.0563 29.6807 12.3814 29.6807 12.7139C29.6816 12.9347 29.6389 13.1535 29.5551 13.3578C29.4713 13.5621 29.3479 13.7478 29.1921 13.9043C29.0364 14.0609 28.8512 14.1851 28.6473 14.2699C28.4434 14.3547 28.2248 14.3984 28.004 14.3985L28.0005 14.395ZM35.9598 0.543945H5.04306C3.92493 0.543945 2.8526 0.988121 2.06196 1.77876C1.27132 2.5694 0.827148 3.64173 0.827148 4.75986L0.827148 35.6766C0.827148 36.7947 1.27132 37.867 2.06196 38.6577C2.8526 39.4483 3.92493 39.8925 5.04306 39.8925H35.9598C37.0779 39.8925 38.1502 39.4483 38.9409 38.6577C39.7315 37.867 40.1757 36.7947 40.1757 35.6766V4.75986C40.1757 3.64173 39.7315 2.5694 38.9409 1.77876C38.1502 0.988121 37.0779 0.543945 35.9598 0.543945ZM34.4561 26.0151C34.3428 28.2662 33.829 30.2609 32.1856 31.8998C30.5423 33.5387 28.5494 34.0631 26.3009 34.1702C23.9813 34.3011 17.0268 34.3011 14.7072 34.1702C12.456 34.0569 10.4684 33.5423 8.82245 31.8998C7.17649 30.2574 6.65916 28.2618 6.55201 26.0151C6.42114 23.6946 6.42114 16.7392 6.55201 14.4213C6.66531 12.1702 7.17298 10.1756 8.82245 8.53662C10.4719 6.89768 12.4648 6.37947 14.7072 6.27232C17.0268 6.14145 23.9813 6.14145 26.3009 6.27232C28.5521 6.38562 30.5458 6.90031 32.1856 8.54276C33.8255 10.1852 34.3489 12.1807 34.4561 14.4319C34.587 16.7436 34.587 23.6928 34.4561 26.0151Z" fill="#F5E9DA"/>
</svg>
