<svg xmlns="http://www.w3.org/2000/svg" viewBox="0 0 674.3 948.03"><defs><style>.cls-1{fill:#f89623;}.cls-2{fill:#f4e8da;}.cls-3{fill:none;stroke:#f4e8da;stroke-miterlimit:10;stroke-width:20.03px;}</style></defs><g id="Layer_2" data-name="Layer 2"><g id="Layer_1-2" data-name="Layer 1"><polygon class="cls-1" points="258.12 407.27 210.09 407.42 113.5 505.76 219.74 614.21 273.66 614.24 166.85 504.69 258.12 407.27"/><polygon class="cls-1" points="338.57 407.32 291.55 407.47 197.02 505.81 301 614.26 353.78 614.29 249.24 504.75 338.57 407.32"/><path class="cls-2" d="M294.33,110.77l26.37,0v7.11h-9.05l0,42.69h-8.27l0-42.7h-9.06Z"/><path class="cls-2" d="M323.63,160.6l0-49.81h8.27l0,21h9.83l0-21H350l0,49.81h-8.27v-21.7h-9.83l0,21.7Z"/><path class="cls-2" d="M355.65,110.81h23.49v7.12H363.92v13.88H376v7.12H363.91v14.59h15.21v7.11H355.62Z"/><path class="cls-2" d="M203.19,303.78q6.69,10.29,6.69,25v16.74q0,22.33-14.7,35.69t-39.54,13.37H97.8V188.92h54.9q24.83,0,39.54,13.37T206.94,238v10.87q0,27.61-23.2,39.36Q196.49,293.51,203.19,303.78ZM132.44,218.3v55.81H147.8q12.4,0,18.46-5.43t6.05-16.6V237.39q0-9.1-5.56-14.1t-15.68-5Zm42.81,107.22q0-11.16-6.05-16.6t-18.46-5.43h-18.3v61.68H154q10.13,0,15.68-5t5.56-14.1Z"/><path class="cls-2" d="M290.6,349H253.35l-7.52,45.53H211.19L249.1,188.92h46.4l37.9,205.63H298.11Zm-4.58-30L272,233l-14.05,86.07Z"/><path class="cls-2" d="M354,384q-15-13.5-15-35.25v-114q0-21.74,15-35.25T393.2,186q24.18,0,39.22,13.52t15,35.25v24.08h-34V234.75q0-8.82-5.55-14.1t-14.38-5.29q-8.82,0-14.38,5.29t-5.55,14.1v114q0,8.82,5.55,14.1t14.38,5.29q8.82,0,14.38-5.29t5.55-14.1V319.35h34v29.37q0,21.75-15,35.25T393.2,397.49Q369,397.49,354,384Z"/><path class="cls-2" d="M508.88,310l-13.07,22.62v62H461.17V188.92h34.64v83.43l45.75-83.43h37.25l-48.69,87.25L582.4,394.55H545.15Z"/><path class="cls-2" d="M169.31,686.92V669.59q0-9.69-5-15t-13.92-5.29q-8.88,0-13.91,5.29t-5,15V781.8q0,9.71,5,15t13.91,5.29q8.88,0,13.92-5.29t5-15V745.38H150.36V716h50.33v65.8q0,22.34-13.91,36t-36.42,13.66q-22.5,0-36.41-13.66T100,781.8V669.59q0-22.32,13.92-36t36.41-13.66q22.5,0,36.42,13.66t13.91,36v17.33Z"/><path class="cls-2" d="M290.69,828.51l-22.79-84.9H251.61v84.9H220.23V622.88h49.15q22.49,0,35.82,13.37t13.32,35.69v22.62a53.57,53.57,0,0,1-5.62,25,41.77,41.77,0,0,1-16,17l26.35,91.94ZM251.61,714.24H267.9q9.17,0,14.21-5t5-14.1v-23.8q0-9.11-5-14.1t-14.21-5H251.61Z"/><path class="cls-2" d="M338.06,622.88h31.39V828.51H338.06Z"/><path class="cls-2" d="M392.83,622.88h31.38V799.13h56v29.38H392.83Z"/><path class="cls-2" d="M493.49,622.88h31.38V799.13h56v29.38H493.49Z"/><path class="cls-2" d="M436.85,600.85q-11.33-13.36-11.32-35.21V455.83q0-21.84,11.32-35.21t29.61-13.37q18.3,0,29.62,13.37t11.32,35.21V565.64q0,21.84-11.32,35.21t-29.62,13.37Q448.16,614.22,436.85,600.85Zm40.93-20.56q4.1-5.16,4.09-14.65V455.83q0-9.49-4.09-14.66a14.95,14.95,0,0,0-22.63,0q-4.09,5.18-4.1,14.66V565.64q0,9.48,4.1,14.65t11.31,5.18Q473.69,585.47,477.78,580.29Z"/><path class="cls-2" d="M413.93,540.78h-16v73.44H371.2V540.78H310.75L280.4,507.4l80.12-100.15h37.39V507.4h16ZM371.2,507.4V434L312.45,507.4Z"/><rect class="cls-3" x="10.01" y="10.01" width="654.27" height="928" rx="171.28"/></g></g></svg>