<svg xmlns="http://www.w3.org/2000/svg" viewBox="0 0 101 142"><defs><style>.cls-1{fill:#f89623;}.cls-2{font-size:10.66px;letter-spacing:-0.04em;}.cls-2,.cls-3,.cls-6,.cls-7{fill:#f4e8da;}.cls-2,.cls-3,.cls-6{font-family:Bebas-Regular, Bebas;}.cls-3,.cls-6{font-size:44px;}.cls-3{letter-spacing:-0.06em;}.cls-4{letter-spacing:-0.06em;}.cls-5{letter-spacing:-0.06em;}.cls-6{letter-spacing:-0.04em;}.cls-8{fill:none;stroke:#f4e8da;stroke-miterlimit:10;stroke-width:3px;}</style></defs><g id="Layer_2" data-name="Layer 2"><g id="Layer_1-2" data-name="Layer 1"><polygon class="cls-1" points="38.66 61 31.47 61.02 17 75.75 32.91 92 40.99 92 24.99 75.59 38.66 61"/><polygon class="cls-1" points="50.71 61.01 43.67 61.03 29.51 75.76 45.09 92.01 52.99 92.01 37.33 75.6 50.71 61.01"/><text class="cls-2" transform="translate(43.8 24.05) rotate(0.04) scale(1.1 1)">THE</text><text class="cls-3" transform="translate(11.81 59.1) scale(1.11 1)">B<tspan class="cls-4" x="16.76" y="0">A</tspan><tspan class="cls-5" x="32.87" y="0">CK</tspan></text><text class="cls-6" transform="translate(12.81 124.1) scale(1.01 1)">GRILL</text><path class="cls-7" d="M65.43,90a7.89,7.89,0,0,1-1.69-5.28V68.28A7.91,7.91,0,0,1,65.43,63a5.92,5.92,0,0,1,8.87,0A7.92,7.92,0,0,1,76,68.28V84.72A7.9,7.9,0,0,1,74.3,90a5.92,5.92,0,0,1-8.87,0Zm6.13-3.08a3.47,3.47,0,0,0,.62-2.2V68.28a3.47,3.47,0,0,0-.62-2.2,2,2,0,0,0-1.69-.77,2,2,0,0,0-1.7.77,3.47,3.47,0,0,0-.61,2.2V84.72a3.47,3.47,0,0,0,.61,2.2,2,2,0,0,0,1.7.77A2,2,0,0,0,71.56,86.92Z"/><path class="cls-7" d="M62,81H59.6V92h-4V81H46.55L42,76,54,61h5.6V76H62Zm-6.4-5V65L46.8,76Z"/><rect class="cls-8" x="1.5" y="1.5" width="98" height="139" rx="25.65"/></g></g></svg>