<svg width="61" height="76" viewBox="0 0 61 76" fill="none" xmlns="http://www.w3.org/2000/svg">
<path d="M30.2701 41.4922C36.1249 41.4922 40.8712 36.67 40.8712 30.7216C40.8712 24.7732 36.1249 19.951 30.2701 19.951C24.4152 19.951 19.6689 24.7732 19.6689 30.7216C19.6689 36.67 24.4152 41.4922 30.2701 41.4922Z" stroke="white" stroke-width="4" stroke-linecap="round" stroke-linejoin="round"/>
<path d="M30.2697 2C22.7721 2 15.5816 5.026 10.28 10.4123C4.9784 15.7986 2 23.1041 2 30.7215C2 37.5141 3.42055 41.9588 7.30056 46.8773L30.2697 73.8037L53.2388 46.8773C57.1188 41.9588 58.5393 37.5141 58.5393 30.7215C58.5393 23.1041 55.5609 15.7986 50.2594 10.4123C44.9578 5.026 37.7673 2 30.2697 2V2Z" stroke="white" stroke-width="4" stroke-linecap="round" stroke-linejoin="round"/>
</svg>
