<svg width="61" height="76" viewBox="0 0 61 76" fill="none" xmlns="http://www.w3.org/2000/svg">
<path d="M30.2696 41.4922C36.1244 41.4922 40.8707 36.67 40.8707 30.7216C40.8707 24.7732 36.1244 19.951 30.2696 19.951C24.4147 19.951 19.6685 24.7732 19.6685 30.7216C19.6685 36.67 24.4147 41.4922 30.2696 41.4922Z" stroke="#38292A" stroke-width="4" stroke-linecap="round" stroke-linejoin="round"/>
<path d="M30.2692 2C22.7716 2 15.5811 5.026 10.2795 10.4123C4.97792 15.7986 1.99951 23.1041 1.99951 30.7215C1.99951 37.5141 3.42006 41.9588 7.30008 46.8773L30.2692 73.8037L53.2383 46.8773C57.1183 41.9588 58.5389 37.5141 58.5389 30.7215C58.5389 23.1041 55.5605 15.7986 50.2589 10.4123C44.9573 5.026 37.7668 2 30.2692 2V2Z" stroke="#38292A" stroke-width="4" stroke-linecap="round" stroke-linejoin="round"/>
</svg>
