<svg width="365" height="80" viewBox="0 0 365 80" fill="none" xmlns="http://www.w3.org/2000/svg">
<path fill-rule="evenodd" clip-rule="evenodd" d="M364.147 3.78261C364.855 2.59706 364.468 1.06239 363.283 0.354386C362.097 -0.35411 360.563 0.0330974 359.854 1.21816C356.003 7.66591 350.249 17.7406 345.5 27.0243C343.128 31.662 340.985 36.143 339.455 39.8954C338.69 41.7694 338.061 43.5028 337.633 45.0077C337.223 46.4506 336.928 47.9149 337.005 49.1561C337.092 50.5346 338.279 51.5814 339.657 51.4955C341.035 51.4096 342.082 50.2225 341.996 48.8446C341.973 48.4857 342.067 47.6981 342.443 46.3749C342.801 45.1132 343.357 43.5663 344.084 41.7836C345.537 38.2221 347.607 33.8847 349.951 29.3012C354.636 20.1434 360.332 10.1679 364.147 3.78261ZM86.939 3.683C88.2165 4.20058 88.8343 5.65419 88.3202 6.933C87.6685 8.55361 86.9809 10.3212 86.2827 12.184C97.7323 11.8173 109.78 11.8632 122.13 12.5038C123.509 12.5751 124.569 13.7509 124.497 15.1298C124.426 16.5087 123.25 17.5683 121.871 17.497C108.943 16.8266 96.3514 16.8158 84.4447 17.2499C82.2933 23.3837 80.2505 29.9877 79.0573 35.5385C78.0742 40.1112 77.7719 43.5316 78.1662 45.3847C78.2463 45.7616 78.3327 45.9696 78.3897 46.0761C78.5476 46.0629 78.8772 45.9979 79.4478 45.7328C84.6101 43.3363 89.6788 38.9061 93.9761 34.181C98.2498 29.4813 101.601 24.6679 103.352 21.7226C104.002 20.6298 105.368 20.1986 106.527 20.7206C107.686 21.2426 108.269 22.5517 107.882 23.7621L105.411 31.4823C106.129 30.7655 106.873 30.0961 107.64 29.495C109.563 27.9882 111.791 26.786 114.225 26.5155C115.448 26.3798 116.64 26.4921 117.728 26.9545C118.835 27.4257 119.677 28.1937 120.274 29.1122C121.402 30.8466 121.634 33.0634 121.574 35.0258C121.454 39.0409 120.039 43.7997 118.831 46.9066C118.33 48.1933 116.881 48.8309 115.595 48.3305C114.308 47.83 113.67 46.3812 114.171 45.0941C115.296 42.2011 116.481 38.0595 116.577 34.8754C116.626 33.2377 116.37 32.2792 116.083 31.8383C115.973 31.6698 115.876 31.6005 115.771 31.5556C115.646 31.5028 115.354 31.4208 114.777 31.4852C113.61 31.6146 112.246 32.2377 110.724 33.4306C109.218 34.6107 107.71 36.2284 106.278 38.08C103.411 41.786 101.057 46.1527 99.7852 49.0155C99.2458 50.2294 97.8517 50.8095 96.6107 50.3368C95.3696 49.8637 94.7148 48.5033 95.1196 47.2387L98.5251 36.5961L98.2561 36.8993L97.9424 37.2494L97.6752 37.5448C93.1891 42.4779 87.5912 47.4647 81.5534 50.268C79.8839 51.0429 77.9371 51.4706 76.1543 50.5966C74.3594 49.7167 73.5993 47.9462 73.2757 46.4252C72.6356 43.4174 73.1895 39.0434 74.169 34.4877C74.5552 32.6908 75.0241 30.7968 75.5527 28.8519C59.3623 48.8261 39.3058 53.0004 34.0006 53.0004C32.6199 53.0004 31.5006 51.8812 31.5006 50.5004C31.5006 49.1195 32.6199 48.0004 34.0006 48.0004C38.4957 48.0004 61.5998 43.3964 77.4017 17.5609C43.0656 19.3432 15.3178 24.6386 3.15056 27.9144C1.81732 28.2733 0.445531 27.4833 0.0865827 26.1503C-0.272365 24.8168 0.517452 23.4452 1.85069 23.0863C14.7135 19.6229 44.1391 14.0453 80.2981 12.4149C81.49 10.1098 82.6237 7.65956 83.6858 5.05605C84.2063 3.78017 85.6615 3.16591 86.939 3.683ZM147.499 33.4071C147.46 32.3617 147.478 31.5434 147.494 30.8549L147.496 30.7543L147.499 30.6361C147.513 30.0687 147.532 29.2636 147.377 28.5907C147.276 28.1537 147.067 27.579 146.594 27.0614C146.106 26.5282 145.524 26.2562 145.022 26.1205C144.208 25.8998 143.272 25.9682 142.631 26.015C141.364 26.1078 139.998 26.6029 138.733 27.1991C137.419 27.8178 136.003 28.6483 134.58 29.5951C131.737 31.4877 128.716 33.9496 126.237 36.4066C124.996 37.6361 123.861 38.8939 122.942 40.1059C122.045 41.289 121.256 42.5556 120.835 43.7963C120.434 44.9784 120.171 46.785 121.406 48.2894C122.557 49.6918 124.363 49.9999 125.88 49.9999C130.855 49.9999 136.215 47.3148 140.175 44.2475C141.079 43.5473 141.937 42.807 142.725 42.0453C142.735 44.2631 142.681 46.1312 142.53 47.1205C142.32 48.4852 143.257 49.7616 144.621 49.9711C145.313 50.0775 145.982 49.8891 146.501 49.4994C147.298 49.4984 148.08 49.1176 148.564 48.411L154.821 39.2665C157.903 37.0263 162.507 33.8119 166.674 31.6264C168.863 30.4784 170.747 29.7147 172.136 29.452C172.948 29.2982 173.301 29.3549 173.427 29.4003C173.744 29.934 173.962 30.7904 173.94 32.0546C173.917 33.3417 173.649 34.8392 173.207 36.4091C172.319 39.5609 170.841 42.622 169.875 44.183C169.148 45.3573 169.511 46.8978 170.685 47.6249C170.724 47.6488 170.763 47.6718 170.803 47.6937C170.942 47.9496 171.128 48.1859 171.361 48.3881C172.404 49.2934 173.983 49.182 174.888 48.1395C176.969 45.7435 179.912 42.2538 182.909 38.5263C186.514 40.4105 191.236 43.0145 195.241 45.5097C197.554 46.9511 199.56 48.3148 200.963 49.4545C201.671 50.0302 202.15 50.4882 202.43 50.8197L202.498 50.9032L202.543 50.9628C202.76 52.1225 203.778 53.0004 205.001 53.0004C206.381 53.0004 207.501 51.8812 207.501 50.5004C207.501 49.1893 206.718 48.1493 206.253 47.5985C205.683 46.9218 204.932 46.2372 204.116 45.5741C202.472 44.2382 200.26 42.7455 197.885 41.266C195.664 39.8817 193.242 38.473 190.905 37.1669C191.061 37.143 191.218 37.1176 191.376 37.0912C194.816 36.5155 198.728 35.3388 201.954 33.0346C203.077 32.2323 203.337 30.6708 202.535 29.5473C201.732 28.4237 200.171 28.1635 199.048 28.9662C196.673 30.662 193.585 31.6518 190.551 32.1596C189.528 32.3309 188.535 32.4428 187.61 32.5111C188.938 30.7538 190.189 29.036 191.277 27.4476C192.8 25.2255 194.095 23.1259 194.798 21.4852C195.342 20.2162 194.755 18.7465 193.485 18.2025C192.216 17.6586 190.747 18.2465 190.203 19.5155C189.706 20.6752 188.651 22.434 187.152 24.6215C185.68 26.7709 183.865 29.2099 181.938 31.6923C180.789 33.1732 179.605 34.663 178.436 36.1078C178.725 34.7929 178.916 33.4462 178.939 32.1425C178.972 30.307 178.673 28.3295 177.61 26.6581C176.034 24.1825 173.197 24.1625 171.206 24.539C169.077 24.9418 166.667 25.9838 164.352 27.1981C163.556 27.6156 162.749 28.0653 161.943 28.5355C162.155 27.5697 161.779 26.5287 160.912 25.9359C159.773 25.1561 158.217 25.4476 157.437 26.5873L150.937 36.0873L147.714 40.7992L147.713 40.7665C147.677 38.1649 147.576 35.4769 147.509 33.6703L147.499 33.4071ZM142.487 31.0976C142.474 31.7499 142.465 32.5824 142.502 33.5941C142.514 33.9047 142.289 34.7904 141.252 36.1967C140.286 37.5062 138.851 38.9486 137.113 40.2948C133.561 43.0468 129.272 44.9999 125.88 44.9999L125.736 44.9984C125.962 44.5199 126.347 43.891 126.926 43.1264C127.665 42.1517 128.632 41.0726 129.756 39.9579C132.008 37.7265 134.778 35.4696 137.351 33.7572C138.637 32.9013 139.835 32.2069 140.864 31.7221C141.558 31.3949 142.098 31.2011 142.487 31.0976ZM125.498 45.6884C125.497 45.6889 125.497 45.6801 125.5 45.6605C125.5 45.6781 125.498 45.6879 125.498 45.6884ZM173.486 29.4345C173.483 29.4374 173.466 29.4301 173.441 29.4057C173.476 29.4198 173.489 29.432 173.486 29.4345ZM236.162 21.2865C237.385 21.9276 237.856 23.4389 237.215 24.6615C235.245 28.4164 232.735 33.8881 231.504 38.1908C230.942 40.1547 230.744 41.5585 230.791 42.3778C231.837 42.119 233.275 41.3959 235.042 40.1508C236.899 38.8412 238.912 37.1059 240.919 35.1776C244.931 31.3231 248.753 26.8646 251.031 23.9501C251.787 22.9838 253.132 22.7084 254.207 23.3002C255.282 23.8925 255.768 25.1771 255.355 26.3324C254.222 29.4984 253.143 32.8017 252.057 36.1259L252.055 36.1332L252.05 36.1493C250.239 41.6957 248.408 47.3012 246.275 52.4335C262.476 54.037 283.458 57.2841 310.479 62.5463C311.834 62.8104 312.718 64.1229 312.454 65.4784C312.191 66.8334 310.878 67.7182 309.523 67.4545C281.531 62.0028 260.22 58.7592 244.102 57.247C240.064 65.4369 234.602 72.4545 225.929 75.9237C219.34 78.5595 211.631 79.6547 205.421 78.6674C202.315 78.1737 199.379 77.1259 197.172 75.2831C194.882 73.3715 193.501 70.6972 193.501 67.3705C193.501 63.1225 195.014 59.2177 199.084 56.349C202.952 53.6229 208.899 52.0038 217.397 51.4389C223.611 51.0258 231.384 51.1669 241.044 51.9589C243.156 47.1288 244.903 41.911 246.668 36.5106C245.92 37.2792 245.155 38.0409 244.383 38.7836C242.273 40.81 240.06 42.7304 237.922 44.2377C235.837 45.7069 233.597 46.9481 231.459 47.3471C230.258 47.5712 228.883 47.4999 227.71 46.6542C226.555 45.8226 226.082 44.5902 225.901 43.5556C225.556 41.5941 226.039 39.1146 226.697 36.8148C228.066 32.0316 230.756 26.2113 232.787 22.3393C233.428 21.1166 234.939 20.6449 236.162 21.2865ZM238.717 56.7909C230.169 56.1508 223.266 56.0595 217.729 56.4276C209.54 56.9721 204.705 58.5048 201.964 60.4359C199.425 62.2255 198.501 64.4843 198.501 67.3705C198.501 69.1596 199.181 70.4472 200.376 71.4447C201.653 72.5106 203.624 73.3192 206.206 73.7294C211.37 74.5502 218.162 73.6454 224.072 71.2811C230.576 68.6801 235.098 63.5624 238.717 56.7909ZM272.609 21.0814C270.318 20.6947 267.545 21.4501 265.084 22.5683C262.524 23.7313 259.863 25.4867 257.689 27.6161C255.54 29.7221 253.681 32.3788 253.086 35.3754C252.458 38.5292 253.296 41.7538 255.983 44.5897C257.364 46.0473 259.052 46.829 260.882 46.9379C262.644 47.0424 264.34 46.5145 265.839 45.7269C268.805 44.1688 271.563 41.3026 273.625 38.2909C274.167 37.4984 274.679 36.6703 275.145 35.8241L275.335 35.6918C276.521 34.8432 277.676 33.9457 278.774 33.0409C278.506 33.934 278.27 34.8109 278.077 35.6527C277.597 37.7445 277.278 40.0517 277.735 41.8817C277.979 42.8598 278.517 43.9843 279.655 44.7128C280.802 45.4462 282.097 45.4843 283.231 45.2499C285.273 44.8275 287.304 43.5853 289.122 42.1674C290.928 40.7582 292.747 38.997 294.449 37.1664C293.627 41.5028 293.436 46.203 295.278 49.6434C296.263 51.4823 297.811 52.9237 299.973 53.6742C302.067 54.4013 304.537 54.411 307.322 53.8231C312.844 52.6586 320.347 48.9838 330.417 42.0604C331.555 41.2782 331.843 39.7221 331.061 38.5839C330.279 37.4462 328.722 37.1581 327.584 37.9403C317.655 44.767 310.818 47.976 306.29 48.931C304.051 49.4032 302.568 49.2826 301.612 48.9506C300.723 48.642 300.122 48.0971 299.686 47.2836C298.698 45.4384 298.576 42.2045 299.373 38.038C300.142 34.015 301.66 29.6625 303.284 26.018C303.808 24.8417 303.353 23.4594 302.232 22.8251C301.112 22.1903 299.692 22.5111 298.953 23.5658C297.269 25.9696 294.246 30.017 290.947 33.5892C289.297 35.3764 287.621 36.997 286.047 38.225C284.598 39.3549 283.409 40.0131 282.526 40.2753C282.471 39.5824 282.573 38.4179 282.95 36.7694C283.833 32.9169 285.834 27.975 287.443 24.5673C287.974 23.4408 287.595 22.0946 286.554 21.411C285.513 20.7269 284.127 20.914 283.304 21.8495C282.348 22.9364 280.302 25.0648 277.719 27.3622C277.705 26.2099 277.481 25.0316 276.89 23.9696C276.003 22.3773 274.486 21.3988 272.609 21.0814ZM272.68 28.1249C272.55 29.2641 272.11 30.661 271.412 32.1464C271.166 32.2103 271.004 32.1937 270.912 32.1762C270.662 32.1278 270.262 31.931 269.773 31.3309C268.82 30.1635 268.168 28.2362 268.023 26.7518C269.761 26.0717 271.083 25.8949 271.776 26.0116C272.351 26.1088 272.464 26.2992 272.522 26.4027C272.644 26.6225 272.792 27.1439 272.68 28.1249ZM265.898 34.4916C264.695 33.0165 263.87 31.1151 263.416 29.3119C262.627 29.8866 261.873 30.517 261.188 31.1879C259.435 32.9057 258.316 34.7069 257.989 36.3505C257.694 37.8373 257.987 39.435 259.613 41.1513C260.158 41.726 260.67 41.9164 261.179 41.9467C261.755 41.9809 262.535 41.8148 263.513 41.3007C265.19 40.4198 267.017 38.7431 268.629 36.6615C267.497 36.1527 266.591 35.3402 265.898 34.4916ZM106.028 61.14C76.5366 63.8339 46.519 67.976 27.8973 70.9686C26.5341 71.1879 25.2514 70.2601 25.0323 68.8969C24.8132 67.5341 25.7407 66.2514 27.1039 66.0321C45.8156 63.0248 75.948 58.8671 105.573 56.1605C135.094 53.4642 164.449 52.1732 181.416 55.035C182.778 55.265 183.695 56.5546 183.466 57.9164C183.236 59.2777 181.946 60.1952 180.585 59.9657C164.352 57.2274 135.624 58.4364 106.028 61.14ZM338.501 64.5004C340.986 64.5004 343.001 62.4857 343.001 60.0004C343.001 57.515 340.986 55.5004 338.501 55.5004C336.015 55.5004 334.001 57.515 334.001 60.0004C334.001 62.4857 336.015 64.5004 338.501 64.5004Z" fill="#FF971D"/>
</svg>
