<svg width="52" height="52" viewBox="0 0 52 52" fill="none" xmlns="http://www.w3.org/2000/svg">
<path d="M6.5 52C4.77609 52 3.12279 51.3152 1.90381 50.0962C0.68482 48.8772 0 47.2239 0 45.5V6.5C0 4.77609 0.68482 3.12279 1.90381 1.90381C3.12279 0.68482 4.77609 0 6.5 0L45.5 0C47.2239 0 48.8772 0.68482 50.0962 1.90381C51.3152 3.12279 52 4.77609 52 6.5V45.5C52 47.2239 51.3152 48.8772 50.0962 50.0962C48.8772 51.3152 47.2239 52 45.5 52H6.5ZM27.625 37.375V18.5477L34.5995 25.5255C34.7506 25.6766 34.93 25.7964 35.1274 25.8782C35.3248 25.96 35.5363 26.0021 35.75 26.0021C35.9637 26.0021 36.1752 25.96 36.3726 25.8782C36.57 25.7964 36.7494 25.6766 36.9005 25.5255C37.0516 25.3744 37.1714 25.195 37.2532 24.9976C37.335 24.8002 37.3771 24.5887 37.3771 24.375C37.3771 24.1613 37.335 23.9498 37.2532 23.7524C37.1714 23.555 37.0516 23.3756 36.9005 23.2245L27.1505 13.4745C26.9996 13.3232 26.8202 13.2031 26.6228 13.1212C26.4254 13.0393 26.2137 12.9971 26 12.9971C25.7863 12.9971 25.5746 13.0393 25.3772 13.1212C25.1798 13.2031 25.0004 13.3232 24.8495 13.4745L15.0995 23.2245C14.7944 23.5296 14.6229 23.9435 14.6229 24.375C14.6229 24.8065 14.7944 25.2204 15.0995 25.5255C15.4046 25.8306 15.8185 26.0021 16.25 26.0021C16.6815 26.0021 17.0954 25.8306 17.4005 25.5255L24.375 18.5477V37.375C24.375 37.806 24.5462 38.2193 24.851 38.524C25.1557 38.8288 25.569 39 26 39C26.431 39 26.8443 38.8288 27.149 38.524C27.4538 38.2193 27.625 37.806 27.625 37.375Z" fill="white"/>
</svg>
